REM DIRINDEX 1\2,1\3
REM DIRNAME folder01,folder02,folder03
TITLE ""
FILE "2861-2880.mp3" MP3
  TRACK 01 AUDIO
    TITLE "0:"
    INDEX 01 00:00:00
  TRACK 02 AUDIO
    TITLE "2:cjc039_4721"
    INDEX 01 00:00:25
  TRACK 03 AUDIO
    TITLE "0:"
    INDEX 01 00:01:42
  TRACK 04 AUDIO
    TITLE "3:cjc039_4722"
    INDEX 01 00:02:14
  TRACK 05 AUDIO
    TITLE "0:"
    INDEX 01 00:04:72
  TRACK 06 AUDIO
    TITLE "2:cjc039_4723"
    INDEX 01 00:06:49
  TRACK 07 AUDIO
    TITLE "0:"
    INDEX 01 00:07:58
  TRACK 08 AUDIO
    TITLE "3:cjc039_4724"
    INDEX 01 00:08:34
  TRACK 09 AUDIO
    TITLE "0:"
    INDEX 01 00:12:03
  TRACK 10 AUDIO
    TITLE "2:cjc039_4725"
    INDEX 01 00:13:53
  TRACK 11 AUDIO
    TITLE "0:"
    INDEX 01 00:14:72
  TRACK 12 AUDIO
    TITLE "3:cjc039_4726"
    INDEX 01 00:15:52
  TRACK 13 AUDIO
    TITLE "0:"
    INDEX 01 00:18:44
  TRACK 14 AUDIO
    TITLE "2:cjc039_4727"
    INDEX 01 00:20:28
  TRACK 15 AUDIO
    TITLE "0:"
    INDEX 01 00:21:33
  TRACK 16 AUDIO
    TITLE "3:cjc039_4728"
    INDEX 01 00:22:11
  TRACK 17 AUDIO
    TITLE "0:"
    INDEX 01 00:25:11
  TRACK 18 AUDIO
    TITLE "2:cjc039_4729"
    INDEX 01 00:26:64
  TRACK 19 AUDIO
    TITLE "0:"
    INDEX 01 00:28:12
  TRACK 20 AUDIO
    TITLE "3:cjc039_4730"
    INDEX 01 00:28:62
  TRACK 21 AUDIO
    TITLE "0:"
    INDEX 01 00:32:11
  TRACK 22 AUDIO
    TITLE "2:cjc039_4731"
    INDEX 01 00:33:64
  TRACK 23 AUDIO
    TITLE "0:"
    INDEX 01 00:35:29
  TRACK 24 AUDIO
    TITLE "3:cjc039_4732"
    INDEX 01 00:36:09
  TRACK 25 AUDIO
    TITLE "0:"
    INDEX 01 00:39:41
  TRACK 26 AUDIO
    TITLE "2:cjc039_4733"
    INDEX 01 00:41:24
  TRACK 27 AUDIO
    TITLE "0:"
    INDEX 01 00:42:39
  TRACK 28 AUDIO
    TITLE "3:cjc039_4734"
    INDEX 01 00:43:17
  TRACK 29 AUDIO
    TITLE "0:"
    INDEX 01 00:46:58
  TRACK 30 AUDIO
    TITLE "2:cjc039_4735"
    INDEX 01 00:48:38
  TRACK 31 AUDIO
    TITLE "0:"
    INDEX 01 00:49:74
  TRACK 32 AUDIO
    TITLE "3:cjc039_4736"
    INDEX 01 00:50:46
  TRACK 33 AUDIO
    TITLE "0:"
    INDEX 01 00:55:14
  TRACK 34 AUDIO
    TITLE "2:cjc039_4737"
    INDEX 01 00:56:74
  TRACK 35 AUDIO
    TITLE "0:"
    INDEX 01 00:58:09
  TRACK 36 AUDIO
    TITLE "3:cjc039_4738"
    INDEX 01 00:58:64
  TRACK 37 AUDIO
    TITLE "0:"
    INDEX 01 01:01:72
  TRACK 38 AUDIO
    TITLE "2:cjc039_4739"
    INDEX 01 01:03:47
  TRACK 39 AUDIO
    TITLE "0:"
    INDEX 01 01:05:17
  TRACK 40 AUDIO
    TITLE "3:cjc039_4740"
    INDEX 01 01:05:56
  TRACK 41 AUDIO
    TITLE "0:"
    INDEX 01 01:09:71
  TRACK 42 AUDIO
    TITLE "2:cjc039_4741"
    INDEX 01 01:11:51
  TRACK 43 AUDIO
    TITLE "0:"
    INDEX 01 01:12:71
  TRACK 44 AUDIO
    TITLE "3:cjc039_4742"
    INDEX 01 01:13:44
  TRACK 45 AUDIO
    TITLE "0:"
    INDEX 01 01:16:60
  TRACK 46 AUDIO
    TITLE "2:cjc039_4743"
    INDEX 01 01:18:35
  TRACK 47 AUDIO
    TITLE "0:"
    INDEX 01 01:19:66
  TRACK 48 AUDIO
    TITLE "3:cjc039_4744"
    INDEX 01 01:20:48
  TRACK 49 AUDIO
    TITLE "0:"
    INDEX 01 01:24:12
  TRACK 50 AUDIO
    TITLE "2:cjc039_4745"
    INDEX 01 01:25:60
  TRACK 51 AUDIO
    TITLE "0:"
    INDEX 01 01:27:30
  TRACK 52 AUDIO
    TITLE "3:cjc039_4746"
    INDEX 01 01:28:12
  TRACK 53 AUDIO
    TITLE "0:"
    INDEX 01 01:31:57
  TRACK 54 AUDIO
    TITLE "2:cjc039_4747"
    INDEX 01 01:33:31
  TRACK 55 AUDIO
    TITLE "0:"
    INDEX 01 01:34:71
  TRACK 56 AUDIO
    TITLE "3:cjc039_4748"
    INDEX 01 01:35:49
  TRACK 57 AUDIO
    TITLE "0:"
    INDEX 01 01:39:41
  TRACK 58 AUDIO
    TITLE "2:cjc039_4749"
    INDEX 01 01:41:20
  TRACK 59 AUDIO
    TITLE "0:"
    INDEX 01 01:42:31
  TRACK 60 AUDIO
    TITLE "3:cjc039_4750"
    INDEX 01 01:43:11
  TRACK 61 AUDIO
    TITLE "0:"
    INDEX 01 01:46:51
  TRACK 62 AUDIO
    TITLE "2:cjc039_4751"
    INDEX 01 01:48:28
  TRACK 63 AUDIO
    TITLE "0:"
    INDEX 01 01:50:00
  TRACK 64 AUDIO
    TITLE "3:cjc039_4752"
    INDEX 01 01:50:45
  TRACK 65 AUDIO
    TITLE "0:"
    INDEX 01 01:54:50
  TRACK 66 AUDIO
    TITLE "2:cjc039_4753"
    INDEX 01 01:56:30
  TRACK 67 AUDIO
    TITLE "0:"
    INDEX 01 01:57:33
  TRACK 68 AUDIO
    TITLE "3:cjc039_4754"
    INDEX 01 01:58:13
  TRACK 69 AUDIO
    TITLE "0:"
    INDEX 01 02:03:12
  TRACK 70 AUDIO
    TITLE "2:cjc039_4755"
    INDEX 01 02:04:68
  TRACK 71 AUDIO
    TITLE "0:"
    INDEX 01 02:06:08
  TRACK 72 AUDIO
    TITLE "3:cjc039_4756"
    INDEX 01 02:06:67
  TRACK 73 AUDIO
    TITLE "0:"
    INDEX 01 02:10:30
  TRACK 74 AUDIO
    TITLE "2:cjc039_4757"
    INDEX 01 02:12:09
  TRACK 75 AUDIO
    TITLE "0:"
    INDEX 01 02:13:30
  TRACK 76 AUDIO
    TITLE "3:cjc039_4758"
    INDEX 01 02:14:12
  TRACK 77 AUDIO
    TITLE "0:"
    INDEX 01 02:16:72
  TRACK 78 AUDIO
    TITLE "2:cjc039_4759"
    INDEX 01 02:18:49
  TRACK 79 AUDIO
    TITLE "0:"
    INDEX 01 02:19:74
  TRACK 80 AUDIO
    TITLE "3:cjc039_4760"
    INDEX 01 02:20:58
  TRACK 81 AUDIO
    TITLE "0:"
    INDEX 01 02:24:65
